<svg xmlns="http://www.w3.org/2000/svg" width="28.818" height="25.936" viewBox="0 0 28.818 25.936">
  <path id="camera" d="M16.409,23.613a7.281,7.281,0,0,1-5.764-2.882h5.764a4.294,4.294,0,0,0,4.063-5.764h3a7.879,7.879,0,0,1,.144,1.441,7.2,7.2,0,0,1-7.2,7.2m0-14.409a7.281,7.281,0,0,1,5.764,2.882H16.409a4.323,4.323,0,0,0-4.323,4.323,4.4,4.4,0,0,0,.259,1.441h-3A6.79,6.79,0,0,1,9.2,16.409a7.2,7.2,0,0,1,7.2-7.2M27.936,4.882H23.368L20.732,2H12.086L9.449,4.882H4.882A2.882,2.882,0,0,0,2,7.764V25.054a2.882,2.882,0,0,0,2.882,2.882H27.936a2.882,2.882,0,0,0,2.882-2.882V7.764A2.881,2.881,0,0,0,27.936,4.882Z" transform="translate(-2 -2)" fill="#fff"/>
</svg>
