<svg xmlns="http://www.w3.org/2000/svg" width="10.436" height="10.436" viewBox="0 0 10.436 10.436">
  <path id="imageadd" d="M10.827,9.262v1.565H9.262v1.044h1.565v1.565h1.044V11.871h1.565V10.827H11.871V9.262H10.827M8.375,12.393H4.044A1.047,1.047,0,0,1,3,11.349V4.044A1.047,1.047,0,0,1,4.044,3h7.305a1.047,1.047,0,0,1,1.044,1.044V8.375a3.365,3.365,0,0,0-1.044-.157,2.93,2.93,0,0,0-1.618.47L9,7.7,7.174,10.044,5.87,8.479,4.044,10.827H8.27a1.775,1.775,0,0,0-.052.522A3.365,3.365,0,0,0,8.375,12.393Z" transform="translate(-3 -3)" fill="#f6f5fa"/>
</svg>
