<?xml version="1.0" encoding="utf-8"?>
<!-- Generator: Adobe Illustrator 25.0.1, SVG Export Plug-In . SVG Version: 6.00 Build 0)  -->
<svg version="1.1" id="Capa_1" xmlns="http://www.w3.org/2000/svg" xmlns:xlink="http://www.w3.org/1999/xlink" x="0px" y="0px"
	 viewBox="0 0 500 500" style="enable-background:new 0 0 500 500;" xml:space="preserve">
<style type="text/css">
	.st0{fill:url(#XMLID_3_);}
	.st1{fill:url(#XMLID_4_);}
	.st2{fill:url(#XMLID_5_);}
	.st3{opacity:0.2;fill:url(#XMLID_6_);}
	.st4{fill:url(#XMLID_7_);}
	.st5{fill:url(#XMLID_8_);}
	.st6{fill:url(#XMLID_9_);}
	.st7{opacity:0.2;fill:url(#XMLID_10_);}
	.st8{fill:url(#XMLID_11_);}
	.st9{fill:url(#XMLID_12_);}
	.st10{fill:url(#XMLID_13_);}
	.st11{fill:url(#XMLID_14_);}
	.st12{fill:url(#XMLID_15_);}
	.st13{fill:url(#XMLID_16_);}
	.st14{fill:url(#XMLID_17_);}
	.st15{fill:url(#XMLID_18_);}
	.st16{opacity:0.2;fill:url(#XMLID_19_);}
	.st17{fill:url(#XMLID_20_);}
</style>
<g id="XMLID_2_">
	<linearGradient id="XMLID_3_" gradientUnits="userSpaceOnUse" x1="221.7677" y1="171.4195" x2="275.0683" y2="319.564">
		<stop  offset="0" style="stop-color:#F908C9"/>
		<stop  offset="0.1339" style="stop-color:#CD20D3"/>
		<stop  offset="0.368" style="stop-color:#8548E2"/>
		<stop  offset="0.5785" style="stop-color:#4C67EF"/>
		<stop  offset="0.7576" style="stop-color:#237EF8"/>
		<stop  offset="0.8983" style="stop-color:#098CFD"/>
		<stop  offset="0.9832" style="stop-color:#0091FF"/>
	</linearGradient>
	<path id="XMLID_78_" class="st0" d="M250,167.5c-45.6,0-82.5,36.8-82.5,82.3S204.4,332,250,332c45.6,0,82.5-36.8,82.5-82.3
		S295.5,167.5,250,167.5z M250,300.7c-28.2,0-51.1-22.8-51.1-50.9c0-28.1,22.9-50.9,51.1-50.9c28.2,0,51.1,22.8,51.1,50.9
		C301,277.9,278.2,300.7,250,300.7z"/>
	<linearGradient id="XMLID_4_" gradientUnits="userSpaceOnUse" x1="243.2235" y1="176.5003" x2="252.6273" y2="278.8986">
		<stop  offset="0" style="stop-color:#F908C9"/>
		<stop  offset="0.1339" style="stop-color:#CD20D3"/>
		<stop  offset="0.368" style="stop-color:#8548E2"/>
		<stop  offset="0.5785" style="stop-color:#4C67EF"/>
		<stop  offset="0.7576" style="stop-color:#237EF8"/>
		<stop  offset="0.8983" style="stop-color:#098CFD"/>
		<stop  offset="0.9832" style="stop-color:#0091FF"/>
	</linearGradient>
	<ellipse id="XMLID_77_" class="st1" cx="250" cy="249.8" rx="15.7" ry="15.7"/>
	<g id="XMLID_63_">
		<g id="XMLID_71_">
			<g id="XMLID_73_">
				<linearGradient id="XMLID_5_" gradientUnits="userSpaceOnUse" x1="298.3835" y1="-9.1868" x2="194.4454" y2="260.632">
					<stop  offset="0" style="stop-color:#F908C9"/>
					<stop  offset="0.1339" style="stop-color:#CD20D3"/>
					<stop  offset="0.368" style="stop-color:#8548E2"/>
					<stop  offset="0.5785" style="stop-color:#4C67EF"/>
					<stop  offset="0.7576" style="stop-color:#237EF8"/>
					<stop  offset="0.8983" style="stop-color:#098CFD"/>
					<stop  offset="0.9832" style="stop-color:#0091FF"/>
				</linearGradient>
				<path id="XMLID_76_" class="st2" d="M330.9,100.7c-7.4-37.9-40.8-66.4-81-66.4c-45.6,0-82.5,36.8-82.5,82.3v0.1
					c0,8.7,7,15.7,15.7,15.7c8.7,0,15.7-7,15.7-15.7v-0.1c0-28.1,22.9-50.9,51.1-50.9c28.2,0,51.1,22.8,51.1,50.9
					c0,28.1-22.9,50.9-51.1,50.9h0c-27.4,0-51.8,13.4-66.7,34c9.8,13.5,15.6,30.1,15.7,48c0.2-28,22.9-50.6,51-50.6h0
					c45.6,0,82.5-36.8,82.5-82.3C332.4,111.1,331.9,105.8,330.9,100.7z"/>
				
					<linearGradient id="XMLID_6_" gradientUnits="userSpaceOnUse" x1="59.2706" y1="66.5971" x2="121.9803" y2="128.7813" gradientTransform="matrix(0 1 -1 0 398.6086 44.5891)">
					<stop  offset="0" style="stop-color:#F908C9"/>
					<stop  offset="0.1339" style="stop-color:#CD20D3"/>
					<stop  offset="0.368" style="stop-color:#8548E2"/>
					<stop  offset="0.5785" style="stop-color:#4C67EF"/>
					<stop  offset="0.7576" style="stop-color:#237EF8"/>
					<stop  offset="0.8983" style="stop-color:#098CFD"/>
					<stop  offset="0.9832" style="stop-color:#0091FF"/>
				</linearGradient>
				<path id="XMLID_75_" class="st3" d="M250.3,167.4c4.3,0.3,59.2,2.3,80.7-66.8C315.6,173.6,254.7,167.9,250.3,167.4z"/>
				<linearGradient id="XMLID_7_" gradientUnits="userSpaceOnUse" x1="221.9117" y1="57.9643" x2="170.1737" y2="180.2542">
					<stop  offset="0" style="stop-color:#F908C9"/>
					<stop  offset="0.1339" style="stop-color:#CD20D3"/>
					<stop  offset="0.368" style="stop-color:#8548E2"/>
					<stop  offset="0.5785" style="stop-color:#4C67EF"/>
					<stop  offset="0.7576" style="stop-color:#237EF8"/>
					<stop  offset="0.8983" style="stop-color:#098CFD"/>
					<stop  offset="0.9832" style="stop-color:#0091FF"/>
				</linearGradient>
				<path id="XMLID_74_" class="st4" d="M172.2,149.5c0-6.1,4.9-11,11-11c6.1,0,11,4.9,11,11c0,6.1-4.9,11-11,11
					C177.1,160.5,172.2,155.6,172.2,149.5z"/>
			</g>
			<linearGradient id="XMLID_8_" gradientUnits="userSpaceOnUse" x1="332.8151" y1="87.2974" x2="161.558" y2="115.5785">
				<stop  offset="0" style="stop-color:#F908C9"/>
				<stop  offset="0.1339" style="stop-color:#CD20D3"/>
				<stop  offset="0.368" style="stop-color:#8548E2"/>
				<stop  offset="0.5785" style="stop-color:#4C67EF"/>
				<stop  offset="0.7576" style="stop-color:#237EF8"/>
				<stop  offset="0.8983" style="stop-color:#098CFD"/>
				<stop  offset="0.9832" style="stop-color:#0091FF"/>
			</linearGradient>
			<path id="XMLID_72_" class="st5" d="M330.9,100.7c-22.4,71.9-81,66.8-81,66.8c28.2,0,51.1-22.8,51.1-50.9
				c0-28.1-22.9-50.9-51.1-50.9c-28.2,0-51.1,22.8-51.1,50.9v0.1c0,8.7-7,15.7-15.7,15.7c-8.7,0-15.7-7-15.7-15.7v-0.1
				c0-45.4,36.9-82.3,82.5-82.3C290.1,34.3,323.5,62.8,330.9,100.7z"/>
		</g>
		<g id="XMLID_64_">
			<g id="XMLID_66_">
				<linearGradient id="XMLID_9_" gradientUnits="userSpaceOnUse" x1="194.5083" y1="483.7263" x2="315.265" y2="264.2639">
					<stop  offset="0" style="stop-color:#F908C9"/>
					<stop  offset="0.1339" style="stop-color:#CD20D3"/>
					<stop  offset="0.368" style="stop-color:#8548E2"/>
					<stop  offset="0.5785" style="stop-color:#4C67EF"/>
					<stop  offset="0.7576" style="stop-color:#237EF8"/>
					<stop  offset="0.8983" style="stop-color:#098CFD"/>
					<stop  offset="0.9832" style="stop-color:#0091FF"/>
				</linearGradient>
				<path id="XMLID_70_" class="st6" d="M316.7,367.2c-8.7,0-15.7,7-15.7,15.7v0.1c0,28.1-22.9,50.9-51.1,50.9
					c-28.2,0-51.1-22.8-51.1-50.9c0-28.1,22.9-50.9,51.1-50.9h0c27.4,0,51.8-13.4,66.7-34c-9.9-13.6-15.7-30.3-15.7-48.3
					c0,28.1-22.9,50.9-51,50.9h0c-45.6,0-82.5,36.8-82.5,82.3c0,5.4,0.5,10.7,1.5,15.9c7.4,37.9,40.8,66.4,81,66.4
					c45.6,0,82.5-36.8,82.5-82.3v-0.1C332.4,374.2,325.4,367.2,316.7,367.2z"/>
				<g id="XMLID_68_">
					
						<linearGradient id="XMLID_10_" gradientUnits="userSpaceOnUse" x1="41.5432" y1="102.54" x2="104.2528" y2="164.7241" gradientTransform="matrix(0 -1 1 0 65.5885 437.2004)">
						<stop  offset="0" style="stop-color:#F908C9"/>
						<stop  offset="0.1339" style="stop-color:#CD20D3"/>
						<stop  offset="0.368" style="stop-color:#8548E2"/>
						<stop  offset="0.5785" style="stop-color:#4C67EF"/>
						<stop  offset="0.7576" style="stop-color:#237EF8"/>
						<stop  offset="0.8983" style="stop-color:#098CFD"/>
						<stop  offset="0.9832" style="stop-color:#0091FF"/>
					</linearGradient>
					<path id="XMLID_69_" class="st7" d="M249.8,332.1c-4.3-0.3-59.2-2.3-80.7,66.8C184.5,325.9,245.5,331.6,249.8,332.1z"/>
				</g>
				
					<linearGradient id="XMLID_11_" gradientUnits="userSpaceOnUse" x1="-896.75" y1="616.6063" x2="-948.4879" y2="738.8959" gradientTransform="matrix(-1 0 0 -1 -618.76 1058.15)">
					<stop  offset="0" style="stop-color:#F908C9"/>
					<stop  offset="0.1339" style="stop-color:#CD20D3"/>
					<stop  offset="0.368" style="stop-color:#8548E2"/>
					<stop  offset="0.5785" style="stop-color:#4C67EF"/>
					<stop  offset="0.7576" style="stop-color:#237EF8"/>
					<stop  offset="0.8983" style="stop-color:#098CFD"/>
					<stop  offset="0.9832" style="stop-color:#0091FF"/>
				</linearGradient>
				<path id="XMLID_67_" class="st8" d="M327.7,350c0,6.1-4.9,11-11,11s-11-4.9-11-11s4.9-11,11-11S327.7,343.9,327.7,350z"/>
			</g>
			
				<linearGradient id="XMLID_12_" gradientUnits="userSpaceOnUse" x1="-785.8465" y1="645.9393" x2="-957.1035" y2="674.2203" gradientTransform="matrix(-1 0 0 -1 -618.76 1058.15)">
				<stop  offset="0" style="stop-color:#F908C9"/>
				<stop  offset="0.1339" style="stop-color:#CD20D3"/>
				<stop  offset="0.368" style="stop-color:#8548E2"/>
				<stop  offset="0.5785" style="stop-color:#4C67EF"/>
				<stop  offset="0.7576" style="stop-color:#237EF8"/>
				<stop  offset="0.8983" style="stop-color:#098CFD"/>
				<stop  offset="0.9832" style="stop-color:#0091FF"/>
			</linearGradient>
			<path id="XMLID_65_" class="st9" d="M169,398.8c22.4-71.9,81-66.8,81-66.8c-28.2,0-51.1,22.8-51.1,50.9
				c0,28.1,22.9,50.9,51.1,50.9c28.2,0,51.1-22.8,51.1-50.9v-0.1c0-8.7,7-15.7,15.7-15.7c8.7,0,15.7,7,15.7,15.7v0.1
				c0,45.4-36.9,82.3-82.5,82.3C209.8,465.2,176.4,436.7,169,398.8z"/>
		</g>
	</g>
	<g id="XMLID_51_">
		<g id="XMLID_58_">
			<g id="XMLID_60_">
				<linearGradient id="XMLID_13_" gradientUnits="userSpaceOnUse" x1="-12.7719" y1="166.6464" x2="258.5418" y2="341.2127">
					<stop  offset="0" style="stop-color:#F908C9"/>
					<stop  offset="0.1339" style="stop-color:#CD20D3"/>
					<stop  offset="0.368" style="stop-color:#8548E2"/>
					<stop  offset="0.5785" style="stop-color:#4C67EF"/>
					<stop  offset="0.7576" style="stop-color:#237EF8"/>
					<stop  offset="0.8983" style="stop-color:#098CFD"/>
					<stop  offset="0.9832" style="stop-color:#0091FF"/>
				</linearGradient>
				<path id="XMLID_62_" class="st10" d="M198.9,249.8L198.9,249.8L198.9,249.8c0-45.5-36.9-82.3-82.5-82.3
					c-5.4,0-10.8,0.5-15.9,1.5c-38,7.4-66.6,40.7-66.6,80.7c0,45.4,36.9,82.3,82.5,82.3h0.1c8.7,0,15.7-7,15.7-15.7
					c0-8.7-7-15.7-15.7-15.7h-0.1c-28.2,0-51.1-22.8-51.1-50.9c0-28.1,22.9-50.9,51.1-50.9c28.2,0,51.1,22.8,51.1,50.9v0h0
					c0,27.4,13.4,51.6,34.1,66.6c13.6-9.9,30.3-15.7,48.4-15.7C221.8,300.7,198.9,277.9,198.9,249.8z"/>
				
					<linearGradient id="XMLID_14_" gradientUnits="userSpaceOnUse" x1="197.1332" y1="1151.183" x2="145.3022" y2="1273.6925" gradientTransform="matrix(0 -1 1 0 -1093.4449 474.685)">
					<stop  offset="0" style="stop-color:#F908C9"/>
					<stop  offset="0.1339" style="stop-color:#CD20D3"/>
					<stop  offset="0.368" style="stop-color:#8548E2"/>
					<stop  offset="0.5785" style="stop-color:#4C67EF"/>
					<stop  offset="0.7576" style="stop-color:#237EF8"/>
					<stop  offset="0.8983" style="stop-color:#098CFD"/>
					<stop  offset="0.9832" style="stop-color:#0091FF"/>
				</linearGradient>
				<path id="XMLID_61_" class="st11" d="M149.5,327.3c-6.1,0-11-4.9-11-11c0-6.1,4.9-11,11-11c6.1,0,11,4.9,11,11
					C160.5,322.4,155.5,327.3,149.5,327.3z"/>
			</g>
			<linearGradient id="XMLID_15_" gradientUnits="userSpaceOnUse" x1="170.6376" y1="240.3663" x2="30.5432" y2="263.5012">
				<stop  offset="0" style="stop-color:#F908C9"/>
				<stop  offset="0.1339" style="stop-color:#CD20D3"/>
				<stop  offset="0.368" style="stop-color:#8548E2"/>
				<stop  offset="0.5785" style="stop-color:#4C67EF"/>
				<stop  offset="0.7576" style="stop-color:#237EF8"/>
				<stop  offset="0.8983" style="stop-color:#098CFD"/>
				<stop  offset="0.9832" style="stop-color:#0091FF"/>
			</linearGradient>
			<path id="XMLID_59_" class="st12" d="M167.5,249.5c0,0.2,0,0.3,0,0.3c0-24.9-17.9-45.6-41.5-50c-3.1-0.6-6.3-0.9-9.6-0.9
				c-28.2,0-51.1,22.8-51.1,50.9c0,28.1,22.9,50.9,51.1,50.9h0.1c8.7,0,15.7,7,15.7,15.7c0,8.7-7,15.7-15.7,15.7h-0.1
				c-45.6,0-82.5-36.8-82.5-82.3c0-40,28.6-73.3,66.6-80.7C169.8,190.5,167.8,245.3,167.5,249.5z"/>
		</g>
		<g id="XMLID_52_">
			<g id="XMLID_55_">
				<linearGradient id="XMLID_16_" gradientUnits="userSpaceOnUse" x1="512.1231" y1="318.8686" x2="216.589" y2="160.0584">
					<stop  offset="0" style="stop-color:#F908C9"/>
					<stop  offset="0.1339" style="stop-color:#CD20D3"/>
					<stop  offset="0.368" style="stop-color:#8548E2"/>
					<stop  offset="0.5785" style="stop-color:#4C67EF"/>
					<stop  offset="0.7576" style="stop-color:#237EF8"/>
					<stop  offset="0.8983" style="stop-color:#098CFD"/>
					<stop  offset="0.9832" style="stop-color:#0091FF"/>
				</linearGradient>
				<path id="XMLID_57_" class="st13" d="M383.5,167.5L383.5,167.5c-8.7,0-15.8,7-15.8,15.7c0,8.7,7,15.7,15.7,15.7h0.1
					c28.2,0,51.1,22.8,51.1,50.9c0,28.1-22.9,50.9-51.1,50.9c-28.2,0-51.1-22.8-51.1-50.9v0h0c0-27.4-13.4-51.6-34.1-66.6
					c-13.6,9.9-30.3,15.7-48.4,15.7c28.2,0,51.1,22.8,51.1,50.9h0v0c0,45.4,36.9,82.3,82.5,82.3c5.4,0,10.8-0.5,15.9-1.5
					c38-7.4,66.6-40.7,66.6-80.7C466,204.3,429.1,167.5,383.5,167.5z"/>
				
					<linearGradient id="XMLID_17_" gradientUnits="userSpaceOnUse" x1="-871.4886" y1="-477.4586" x2="-923.3196" y2="-354.9491" gradientTransform="matrix(0 1 -1 0 -35.295 1093.4449)">
					<stop  offset="0" style="stop-color:#F908C9"/>
					<stop  offset="0.1339" style="stop-color:#CD20D3"/>
					<stop  offset="0.368" style="stop-color:#8548E2"/>
					<stop  offset="0.5785" style="stop-color:#4C67EF"/>
					<stop  offset="0.7576" style="stop-color:#237EF8"/>
					<stop  offset="0.8983" style="stop-color:#098CFD"/>
					<stop  offset="0.9832" style="stop-color:#0091FF"/>
				</linearGradient>
				<path id="XMLID_56_" class="st14" d="M350.4,172.2c6.1,0,11,4.9,11,11c0,6.1-4.9,11-11,11c-6.1,0-11-4.9-11-11
					C339.4,177.1,344.4,172.2,350.4,172.2z"/>
			</g>
			
				<linearGradient id="XMLID_18_" gradientUnits="userSpaceOnUse" x1="-844.4562" y1="-504.6068" x2="-844.4562" y2="-363.2212" gradientTransform="matrix(0 1 -1 0 -35.295 1093.4449)">
				<stop  offset="0" style="stop-color:#F908C9"/>
				<stop  offset="0.1339" style="stop-color:#CD20D3"/>
				<stop  offset="0.368" style="stop-color:#8548E2"/>
				<stop  offset="0.5785" style="stop-color:#4C67EF"/>
				<stop  offset="0.7576" style="stop-color:#237EF8"/>
				<stop  offset="0.8983" style="stop-color:#098CFD"/>
				<stop  offset="0.9832" style="stop-color:#0091FF"/>
			</linearGradient>
			<path id="XMLID_54_" class="st15" d="M399.4,330.5c-72.1-22.3-67-80.7-67-80.7c0,28.1,22.9,50.9,51.1,50.9
				c28.2,0,51.1-22.8,51.1-50.9c0-28.1-22.9-50.9-51.1-50.9h-0.1c-8.7,0-15.7-7-15.7-15.7c0-8.7,7-15.7,15.7-15.7h0.1
				c45.6,0,82.5,36.8,82.5,82.3C466,289.8,437.4,323.1,399.4,330.5z"/>
			
				<linearGradient id="XMLID_19_" gradientUnits="userSpaceOnUse" x1="-3.6033" y1="1.3878" x2="59.092" y2="63.5576" gradientTransform="matrix(-1 0 0 -1 392.6113 333.02)">
				<stop  offset="0" style="stop-color:#F908C9"/>
				<stop  offset="0.1339" style="stop-color:#CD20D3"/>
				<stop  offset="0.368" style="stop-color:#8548E2"/>
				<stop  offset="0.5785" style="stop-color:#4C67EF"/>
				<stop  offset="0.7576" style="stop-color:#237EF8"/>
				<stop  offset="0.8983" style="stop-color:#098CFD"/>
				<stop  offset="0.9832" style="stop-color:#0091FF"/>
			</linearGradient>
			<path id="XMLID_53_" class="st16" d="M332.7,250c-0.3,4.2-2.3,59,67,80.5C326.5,315.2,332.2,254.3,332.7,250z"/>
		</g>
	</g>
	<linearGradient id="XMLID_20_" gradientUnits="userSpaceOnUse" x1="198.9284" y1="249.6186" x2="198.83" y2="249.7384">
		<stop  offset="0" style="stop-color:#F908C9"/>
		<stop  offset="0.1339" style="stop-color:#CD20D3"/>
		<stop  offset="0.368" style="stop-color:#8548E2"/>
		<stop  offset="0.5785" style="stop-color:#4C67EF"/>
		<stop  offset="0.7576" style="stop-color:#237EF8"/>
		<stop  offset="0.8983" style="stop-color:#098CFD"/>
		<stop  offset="0.9832" style="stop-color:#0091FF"/>
	</linearGradient>
	<path id="XMLID_50_" class="st17" d="M198.9,249.6v0.2h0v0C198.9,249.7,198.9,249.6,198.9,249.6z"/>
</g>
</svg>
